<?xml version="1.0" encoding="iso-8859-1"?>
<!-- Generator: Adobe Illustrator 19.0.0, SVG Export Plug-In . SVG Version: 6.00 Build 0)  -->
<svg version="1.1" id="Capa_1" xmlns="http://www.w3.org/2000/svg" xmlns:xlink="http://www.w3.org/1999/xlink" x="0px" y="0px"
	 viewBox="0 0 511.999 511.999" style="enable-background:new 0 0 511.999 511.999;" xml:space="preserve">
<g>
	<g>
		<path d="M255.999,390.482c-5.523,0-10,4.479-10,10v0.805c0,5.523,4.477,10,10,10s10-4.477,10-10v-0.805
			C265.999,394.961,261.522,390.482,255.999,390.482z"/>
	</g>
</g>
<g>
	<g>
		<path d="M255.999,67.777c-79.396,0-143.99,64.596-143.99,143.992c0,25.088,6.553,49.793,18.95,71.445
			c12.019,20.99,29.277,38.768,49.911,51.412c4.833,2.963,8.637,5.967,11.572,9.119V469.61c0,24.957,12.886,42.389,31.336,42.389
			h64.443c18.45,0,31.336-17.432,31.336-42.389V343.743c2.938-3.152,6.741-6.157,11.571-9.116
			c20.635-12.645,37.894-30.422,49.911-51.412c12.397-21.652,18.951-46.357,18.951-71.445
			C399.991,132.373,335.397,67.777,255.999,67.777z M299.559,469.611c0,12.973-4.768,22.389-11.336,22.389H223.78
			c-6.568,0-11.336-9.416-11.336-22.389v-11.018h87.115V469.611z M299.559,438.594h-87.115V262.208h-0.001
			c4.645-3.388,11.467-2.423,15.474-1.403c10.911,2.77,17.685,9.697,18.083,11.896l0.002,100.791c0,5.523,4.477,10,10,10
			c5.522,0,10-4.477,10-10l-0.002-100.775c0.489-2.311,7.248-9.162,18.081-11.912c4.007-1.018,10.831-1.984,15.478,1.404V438.594z
			 M222.642,239.901l33.36-67.243l33.36,67.244c-4.29,0.174-8.788,0.963-13.41,2.436c-6.986,2.225-14.3,6.111-19.953,11.174
			c-5.654-5.064-12.97-8.951-19.957-11.176C231.422,240.865,226.927,240.076,222.642,239.901z M320.681,317.574
			c-0.385,0.236-0.745,0.477-1.122,0.715v-60.178c0-0.08-0.012-0.158-0.014-0.238c-0.006-0.238-0.019-0.477-0.042-0.716
			c-0.012-0.122-0.024-0.243-0.04-0.364c-0.033-0.252-0.079-0.503-0.131-0.754c-0.021-0.1-0.04-0.201-0.064-0.301
			c-0.073-0.301-0.162-0.599-0.265-0.895c-0.016-0.045-0.027-0.092-0.044-0.137c-0.126-0.348-0.271-0.69-0.438-1.026
			c-0.002-0.005-0.003-0.009-0.005-0.013L264.96,145.713c-1.689-3.404-5.159-5.557-8.958-5.557s-7.271,2.152-8.958,5.557
			l-53.549,107.936c-0.342,0.684-0.595,1.394-0.769,2.119c-0.017,0.068-0.028,0.137-0.043,0.205
			c-0.062,0.285-0.113,0.571-0.15,0.859c-0.012,0.093-0.021,0.186-0.031,0.28c-0.027,0.272-0.042,0.545-0.047,0.818
			c-0.001,0.061-0.01,0.12-0.01,0.181v60.178c-0.377-0.238-0.737-0.479-1.122-0.715c-37.139-22.76-59.312-62.312-59.312-105.805
			c0-68.369,55.621-123.992,123.99-123.992S379.993,143.4,379.993,211.769C379.991,255.262,357.819,294.814,320.681,317.574z"/>
	</g>
</g>
<g>
	<g>
		<path d="M334.925,132.183c-3.922-3.888-10.253-3.861-14.143,0.059c-3.889,3.922-3.863,10.254,0.059,14.143
			c17.564,17.42,27.238,40.641,27.238,65.381c0,9.313-1.393,18.518-4.142,27.363c-1.639,5.275,1.309,10.879,6.583,12.517
			c0.987,0.307,1.986,0.453,2.97,0.453c4.264,0,8.215-2.75,9.547-7.037c3.346-10.768,5.042-21.971,5.042-33.297
			C368.079,181.65,356.305,153.388,334.925,132.183z"/>
	</g>
</g>
<g>
	<g>
		<path d="M307.621,112.26l-0.565-0.293c-4.897-2.553-10.938-0.648-13.488,4.25c-2.552,4.898-0.648,10.938,4.25,13.488l0.565,0.293
			c1.476,0.768,3.055,1.133,4.61,1.133c3.609,0,7.095-1.961,8.878-5.383C314.423,120.85,312.52,114.811,307.621,112.26z"/>
	</g>
</g>
<g>
	<g>
		<path d="M181.934,60.98l-16.906-29.283c-2.762-4.783-8.877-6.424-13.66-3.66c-4.783,2.76-6.422,8.877-3.66,13.66l16.906,29.283
			c1.851,3.209,5.213,5.002,8.669,5.002c1.696,0,3.416-0.432,4.991-1.342C183.056,71.88,184.695,65.763,181.934,60.98z"/>
	</g>
</g>
<g>
	<g>
		<path d="M116.935,117.428l-28.508-16.455c-4.782-2.76-10.899-1.123-13.66,3.662c-2.761,4.783-1.122,10.898,3.662,13.66
			l28.508,16.455c1.574,0.908,3.293,1.34,4.989,1.34c3.456,0,6.818-1.793,8.67-5.002
			C123.358,126.305,121.718,120.189,116.935,117.428z"/>
	</g>
</g>
<g>
	<g>
		<path d="M360.634,28.038c-4.783-2.762-10.898-1.125-13.66,3.66l-16.91,29.282c-2.761,4.784-1.123,10.899,3.66,13.661
			c1.575,0.91,3.294,1.342,4.991,1.342c3.456,0,6.817-1.793,8.67-5.002l16.909-29.283C367.056,36.915,365.416,30.8,360.634,28.038z"
			/>
	</g>
</g>
<g>
	<g>
		<path d="M88.426,199.268H56.731c-5.524,0-10,4.479-10,10c0,5.523,4.476,10,10,10h31.693c5.523,0,10.001-4.477,10.001-10
			C98.426,203.747,93.947,199.268,88.426,199.268z"/>
	</g>
</g>
<g>
	<g>
		<path d="M255.999,0c-5.523,0-10,4.478-10,10v34.162c0,5.524,4.477,10,10,10s10-4.477,10-10V10C265.999,4.478,261.522,0,255.999,0z
			"/>
	</g>
</g>
<g>
	<g>
		<path d="M437.229,104.635c-2.761-4.785-8.877-6.422-13.659-3.662l-28.507,16.455c-4.783,2.762-6.423,8.877-3.662,13.66
			c1.853,3.209,5.214,5.002,8.67,5.002c1.696,0,3.416-0.432,4.99-1.34l28.507-16.455
			C438.351,115.533,439.991,109.418,437.229,104.635z"/>
	</g>
</g>
<g>
	<g>
		<path d="M455.267,199.268h-31.691c-5.523,0-10,4.479-10,10c0,5.523,4.477,10,10,10h31.691c5.522,0,10-4.477,10-10
			C465.267,203.746,460.79,199.268,455.267,199.268z"/>
	</g>
</g>
<g>
	<g>
		<path d="M433.571,300.24l-26.33-15.205c-4.785-2.762-10.9-1.123-13.661,3.66c-2.762,4.783-1.124,10.898,3.659,13.66l26.33,15.205
			c1.575,0.91,3.295,1.342,4.991,1.342c3.456,0,6.817-1.793,8.669-5C439.991,309.119,438.353,303.004,433.571,300.24z"/>
	</g>
</g>
<g>
	<g>
		<path d="M176.069,347.711c-4.783-2.762-10.899-1.123-13.66,3.66l-14.701,25.463c-2.762,4.783-1.123,10.9,3.66,13.66
			c1.575,0.91,3.294,1.342,4.99,1.342c3.456,0,6.817-1.793,8.67-5.002l14.701-25.463
			C182.491,356.588,180.851,350.471,176.069,347.711z"/>
	</g>
</g>
<g>
	<g>
		<path d="M118.421,288.695c-2.762-4.781-8.876-6.42-13.661-3.66L78.427,300.24c-4.782,2.762-6.421,8.879-3.659,13.66
			c1.852,3.209,5.213,5.002,8.669,5.002c1.697,0,3.416-0.432,4.991-1.342l26.333-15.205
			C119.544,299.593,121.184,293.478,118.421,288.695z"/>
	</g>
</g>
<g>
	<g>
		<path d="M364.293,376.834l-14.703-25.463c-2.762-4.783-8.877-6.422-13.661-3.66c-4.782,2.762-6.421,8.877-3.659,13.66
			l14.703,25.463c1.852,3.209,5.213,5.002,8.669,5.002c1.697,0,3.416-0.432,4.991-1.342
			C365.416,387.732,367.056,381.617,364.293,376.834z"/>
	</g>
</g>
<g>
</g>
<g>
</g>
<g>
</g>
<g>
</g>
<g>
</g>
<g>
</g>
<g>
</g>
<g>
</g>
<g>
</g>
<g>
</g>
<g>
</g>
<g>
</g>
<g>
</g>
<g>
</g>
<g>
</g>
</svg>
