<svg xmlns="http://www.w3.org/2000/svg" width="55.219" height="73.41" viewBox="0 0 55.219 73.41">
  <defs>
    <style>
      .cls-1 {
        fill: #4c8d97;
        fill-rule: evenodd;
      }
    </style>
  </defs>
  <path class="cls-1" d="M824.534,1419.06l-4.6,5.58v28.95a4.6,4.6,0,0,0,9.2,0v-28.95Zm1.534,34.53a1.534,1.534,0,0,1-3.068,0v-3.06h3.068v3.06h0Zm0-6.12H823v-15.29h3.068v15.29Zm0-18.35H823v-3.39l1.534-1.85,1.534,1.85v3.39h0Zm17.121,2.07a3.477,3.477,0,0,0,.415-0.44c1.813-2.44.6-5.28-.4-6.58a3.722,3.722,0,0,1-.642-3.58l0.319-1.12-1.773-1.37-0.923.53-0.014.01c-5.523,3.23-5.15,7.98-4.733,9.87a5.223,5.223,0,0,0,1.285,2.45c-1.362,1.9-1.614,5.23-1.614,8.52,0,0.18.055,18.7,4.763,18.7s4.764-18.52,4.764-18.7C844.639,1436.32,844.411,1433.12,843.189,1431.19Zm-3.747-8a6.931,6.931,0,0,0,1.335,2.85c0.013,0.02,1.255,1.69.359,2.9a1.2,1.2,0,0,1-.881.45c-0.127-.01-0.246-0.03-0.38-0.03-0.028,0-.052.01-0.08,0.01a1.41,1.41,0,0,1-.341-0.09,1.983,1.983,0,0,1-1.017-1.43A5.418,5.418,0,0,1,839.442,1423.19Zm0.433,30.74a58.8,58.8,0,0,1-1.7-14.45c0-2.07.161-6.78,1.579-7.03,0.111,0,.222.03,0.332,0.03a0.067,0.067,0,0,0,.043-0.01c1.29,0.53,1.437,5.01,1.437,7.01A58.787,58.787,0,0,1,839.875,1453.93Zm-35.285-52.34V1475h55.23v-73.41H804.59Zm52.161,70.35H807.658v-9.18h49.093v9.18Zm0-12.23H807.658v-42.83h49.093v42.83Zm0-45.89H807.658v-9.17h49.093v9.17Zm-16.876,52H824.534a1.53,1.53,0,1,0,0,3.06h15.341A1.53,1.53,0,1,0,839.875,1465.82Zm-15.341-58.12h9.205v3.06h-9.205v-3.06Zm12.273,0h3.068v3.06h-3.068v-3.06Z" transform="translate(-804.594 -1401.59)"/>
</svg>
