<svg xmlns="http://www.w3.org/2000/svg" width="73.78" height="73.06" viewBox="0 0 73.78 73.06">
  <defs>
    <style>
      .cls-1 {
        fill: #4c8d97;
        fill-rule: evenodd;
      }
    </style>
  </defs>
  <path class="cls-1" d="M1320,1462.9v-50.24h-17.87a22.3,22.3,0,0,0-38.03,0h-17.87v50.24h23.05v9.13h-6.14v3.04h39.96v-3.04h-6.15v-9.13H1320Zm-70.7-47.19h13.23a21.665,21.665,0,0,0-1.67,8.34v0.61a8.353,8.353,0,0,0,4.58,15.4h2.31v-16.74h-2.31a7.961,7.961,0,0,0-1.47.14,19.16,19.16,0,0,1,38.29,0,7.879,7.879,0,0,0-1.47-.14h-2.3v16.74h2.3a8.423,8.423,0,0,0,2.31-.32v3.37h-11.05a4.587,4.587,0,0,0-4.32-3.05h-4.61a4.57,4.57,0,1,0,0,9.14h4.61a4.587,4.587,0,0,0,4.32-3.05h14.12v-8.01a8.316,8.316,0,0,0-.8-13.48v-0.61a21.665,21.665,0,0,0-1.67-8.34h13.23v36.53H1249.3v-36.53Zm15.37,10.71v10.54A5.317,5.317,0,0,1,1264.67,1426.42Zm41.5,5.27a5.351,5.351,0,0,1-4.61,5.27v-10.54A5.351,5.351,0,0,1,1306.17,1431.69Zm-16.91,12.94a1.522,1.522,0,0,1-1.53,1.52h-4.61a1.52,1.52,0,1,1,0-3.04h4.61A1.522,1.522,0,0,1,1289.26,1444.63Zm4.62,27.4h-21.52v-9.13h21.52v9.13Zm-44.58-12.18v-4.56h67.63v4.56H1249.3Z" transform="translate(-1246.22 -1402)"/>
</svg>
