<svg xmlns="http://www.w3.org/2000/svg" width="73.75" height="73.41" viewBox="0 0 73.75 73.41">
  <defs>
    <style>
      .cls-1 {
        fill: #4c8d97;
        fill-rule: evenodd;
      }
    </style>
  </defs>
  <path class="cls-1" d="M356.966,1775.65l-6.146-6.11H333.283v39.75H382.45v-33.64H356.966Zm22.411,30.58H336.356v-33.64h13.192l6.146,6.12h23.683v27.52Zm-39.948-6.11h21.51v3.06h-21.51v-3.06Zm6.146-6.12h3.073v3.06h-3.073V1794Zm6.146,0h3.073v3.06h-3.073V1794Zm-12.292,0H342.5v3.06h-3.073V1794Zm-18.438-47.4V1820h73.751v-73.4H320.991Zm70.678,70.34h-67.6v-55.05h67.6v55.05Zm0-58.11h-67.6v-9.17h67.6v9.17Zm-6.146-6.11H388.6v3.06h-3.073v-3.06Zm-6.146,0h3.073v3.06h-3.073v-3.06Zm-6.146,0H376.3v3.06h-3.073v-3.06Zm-44.557,0h36.875v3.06H328.674v-3.06Z" transform="translate(-321 -1746.59)"/>
</svg>
