<svg xmlns="http://www.w3.org/2000/svg" width="46.03" height="73.28" viewBox="0 0 46.03 73.28">
  <defs>
    <style>
      .cls-1 {
        fill: #4c8d97;
        fill-rule: evenodd;
      }
    </style>
  </defs>
  <path class="cls-1" d="M1272.05,1743.08v73.26H1292v-73.26h-19.95Zm16.88,70.21h-13.81v-7.63h6.14v-3.05h-6.14v-9.16h4.6v-3.05h-4.6v-9.16h6.14v-3.06h-6.14v-9.15h4.6v-3.06h-4.6v-9.15h6.14v-3.06h-6.14v-7.63h13.81v67.16Zm-30.79-47.33a6.767,6.767,0,0,0,1.57-1.5c3.72-5.02-.56-10.67-0.75-10.91a8.491,8.491,0,0,1-1.44-8.17,1.7,1.7,0,0,0-.54-1.9,1.766,1.766,0,0,0-2.01-.16h0c-9.44,5.52-9.32,13.26-8.41,17.38a8.462,8.462,0,0,0,2.99,4.91c-2.48,2.41-3.59,7.66-3.59,16.37,0,5.65,1.35,34.36,7.73,34.36,7.15,0,7.72-34.02,7.72-34.36C1261.41,1773.65,1260.39,1768.5,1258.14,1765.96Zm-4.16-18.26a11.558,11.558,0,0,0,2.55,7.72c0.03,0.04,3.08,4.04.71,7.23a3.756,3.756,0,0,1-2.58,1.44,7.656,7.656,0,0,0-.97-0.06c-0.12,0-.23.02-0.34,0.02a4.422,4.422,0,0,1-1.04-.31,5.162,5.162,0,0,1-2.75-3.7A11.808,11.808,0,0,1,1253.98,1747.7Zm3.57,24.38h-7.73c0.91-4.21,2.41-4.88,3.38-4.98a7.231,7.231,0,0,0,.91.1c0.15,0,.3-0.02.44-0.03C1255.51,1767.42,1256.76,1768.39,1257.55,1772.08Zm-3.86,41.05c-2.06-2.35-4.66-17.44-4.66-31.15a63.716,63.716,0,0,1,.32-6.85h8.68a64.063,64.063,0,0,1,.31,6.85C1258.34,1795.69,1255.75,1810.78,1253.69,1813.13Z" transform="translate(-1245.97 -1743.06)"/>
</svg>
