<svg xmlns="http://www.w3.org/2000/svg" width="91.75" height="86.22" viewBox="0 0 91.75 86.22">
  <defs>
    <style>
      .cls-1 {
        fill: #4c8d97;
        fill-rule: evenodd;
      }
    </style>
  </defs>
  <path class="cls-1" d="M874.843,1769.43H851.93v-1.93a5.8,5.8,0,0,0-5.818-5.78h-27.92a1.93,1.93,0,1,1,0-3.86h63.6a5.785,5.785,0,1,0,0-11.57H825.167a1.93,1.93,0,1,1,0-3.86h49.647a5.785,5.785,0,1,0,0-11.57H853.87a1.94,1.94,0,0,1-1.94-1.93v-1.99a1.94,1.94,0,0,0-3.879,0v1.99a5.813,5.813,0,0,0,5.819,5.79h20.944a1.925,1.925,0,1,1,0,3.85H825.167a5.79,5.79,0,1,0,0,11.58h56.622a1.925,1.925,0,1,1,0,3.85h-63.6a5.79,5.79,0,1,0,0,11.58h27.92a1.931,1.931,0,0,1,1.939,1.92v1.93H825.138a20.9,20.9,0,1,0,16.756,33.52h16.193A20.971,20.971,0,1,0,874.843,1769.43Zm0,37.94a17.171,17.171,0,0,1-14.161-7.44,1.932,1.932,0,0,0-1.6-.84H840.9a1.932,1.932,0,0,0-1.6.84,17.1,17.1,0,1,1-14.161-26.64h49.7A17.04,17.04,0,1,1,874.843,1807.37Zm-49.7-29.33a12.3,12.3,0,1,0,12.363,12.29A12.339,12.339,0,0,0,825.138,1778.04Zm0,20.73a8.435,8.435,0,1,1,8.484-8.44A8.474,8.474,0,0,1,825.138,1798.77Zm42.592-11.32a2.89,2.89,0,1,0,0,5.78h0A2.89,2.89,0,1,0,867.73,1787.45Zm14.213-.03a2.89,2.89,0,1,0,.01,5.78h0.008A2.89,2.89,0,1,0,881.943,1787.42Zm-7.083,7.09h-0.017a2.9,2.9,0,1,0,0,5.79h0.04A2.9,2.9,0,1,0,874.86,1794.51Zm-0.031-8.35h0.006A2.912,2.912,0,1,0,874.829,1786.16Zm-47.752,2.24v-2.69a1.94,1.94,0,0,0-3.879,0v2.69h-2.709a1.93,1.93,0,1,0,0,3.86H823.2v2.7a1.94,1.94,0,0,0,3.88,0v-2.7h2.709a1.93,1.93,0,1,0,0-3.86h-2.71Zm19.82,3.24h-3.713a1.93,1.93,0,1,0,0,3.86H846.9A1.93,1.93,0,1,0,846.9,1791.64Zm9.9,0h-3.713a1.93,1.93,0,1,0,0,3.86H856.8A1.93,1.93,0,1,0,856.8,1791.64Z" transform="translate(-804.125 -1725)"/>
</svg>
