<svg xmlns="http://www.w3.org/2000/svg" width="73.781" height="66.97" viewBox="0 0 73.781 66.97">
  <defs>
    <style>
      .cls-1 {
        fill: #4c8d97;
        fill-rule: evenodd;
      }
    </style>
  </defs>
  <path class="cls-1" d="M394.77,1461.22V1404.9H321v56.32h23.054v7.61H337.9v3.04h39.961v-3.04h-6.148v-7.61H394.77Zm-70.7-53.28H391.7v41.1H324.07v-41.1Zm44.572,60.89H347.125v-7.61h21.517v7.61Zm-44.572-10.66v-6.09H391.7v6.09H324.07Zm43.035-47.18h19.981v3.04H367.105v-3.04Zm-10.759,0h7.685v3.04h-7.685v-3.04Zm-6.147,0h3.074v3.04H350.2v-3.04Zm-6.148,0h3.074v3.04h-3.074v-3.04Zm24.591,22.83h18.444v3.04H368.642v-3.04Zm-6.148,0h3.074v3.04h-3.074v-3.04Zm-6.148,0h3.074v3.04h-3.074v-3.04Zm15.37-7.61h15.37v3.04h-15.37v-3.04Zm-21.517,0h18.443v3.04H350.2v-3.04Zm4.61-7.61h6.148v3.04h-6.148v-3.04Zm9.222,0h23.055v3.04H364.031v-3.04Zm-35.35,0h23.055v3.04H328.681v-3.04Zm29.2,22.83h29.2v3.04h-29.2v-3.04Zm-10.44-9.45-2.173,2.15,4.292,4.25-4.292,4.26,2.173,2.15,6.466-6.41Zm-12.3,2.15-2.173-2.15-6.466,6.4,6.466,6.41,2.173-2.15-4.292-4.26Zm0.563,11.3,6.143-15.22,2.854,1.13-6.142,15.22Z" transform="translate(-321 -1404.91)"/>
</svg>
