<?xml version="1.0" encoding="utf-8"?>
<!-- Generator: Adobe Illustrator 21.1.0, SVG Export Plug-In . SVG Version: 6.00 Build 0)  -->
<svg version="1.1" id="Layer_1" xmlns="http://www.w3.org/2000/svg" xmlns:xlink="http://www.w3.org/1999/xlink" x="0px" y="0px"
	 viewBox="0 0 54 70.7" style="enable-background:new 0 0 54 70.7;" xml:space="preserve">
<style type="text/css">
	.st0{fill:#4C8D97;stroke:#427C85;stroke-linejoin:round;}
	.st1{fill:#FFFFFF;}
</style>
<path class="st0" d="M27,0.7C12.7,0.6,1.1,12.1,1,26.4C0.9,37.2,7.6,46.9,17.7,50.7l8,18.1c0.3,0.7,1.2,1.1,1.9,0.7
	c0.3-0.1,0.6-0.4,0.7-0.7l8-18.1c13.4-5,20.1-20,15-33.3C47.5,7.3,37.8,0.7,27,0.7z"/>
<g>
	<g>
		<path class="st1" d="M13.7,24.5h1.9l-0.2,0.7c0.7-0.6,1.5-0.9,2.3-0.9c0.5,0,1,0.1,1.3,0.3c0.3,0.2,0.5,0.5,0.6,0.8
			c0.2-0.3,0.6-0.6,1.1-0.8s1-0.3,1.5-0.3c0.6,0,1,0.1,1.4,0.4c0.3,0.3,0.5,0.6,0.5,1.1c0,0.2-0.1,0.6-0.2,1.1l-1,3.9h-1.8l0.8-3.9
			c0.1-0.5,0.2-0.7,0.2-0.8c0-0.2-0.1-0.3-0.2-0.4s-0.3-0.1-0.6-0.1c-0.5,0-0.9,0.2-1.3,0.7c-0.3,0.3-0.5,0.9-0.7,1.7l-0.7,2.9h-1.8
			l0.8-3.8c0.1-0.4,0.2-0.7,0.2-0.8c0-0.2-0.1-0.3-0.2-0.4s-0.3-0.2-0.5-0.2s-0.4,0-0.7,0.2c-0.2,0.1-0.4,0.3-0.6,0.5
			c-0.2,0.2-0.3,0.4-0.4,0.7c-0.1,0.1-0.1,0.5-0.3,1L14.4,31h-2L13.7,24.5z"/>
	</g>
	<g>
		<g>
			<path class="st1" d="M26.7,26.1h-2.5c0.2-0.5,1.2-1.1,1.8-1.5c0.5-0.3,1.3-0.5,2.2-0.5c0.9,0,1.7,0.2,2.1,0.5s0.7,0.7,0.7,1.2
				c0,0.2,0,0.4-0.1,0.6c0,0.2-0.2,0.8-0.4,1.7c-0.2,0.7-0.3,1.3-0.3,1.6c0,0.3,0.1,0.6,0.2,0.9h-1.9c-0.1-0.2-0.1-0.5-0.1-0.7
				c-0.3,0.3-0.6,0.5-1,0.6s-0.8,0.2-1.1,0.2c-0.6,0-1.1-0.2-1.5-0.5C24.2,30,24,29.5,24,29c0-0.6,0.2-1.1,0.7-1.4
				c0.4-0.4,1.2-0.6,2.3-0.6c0.9-0.1,1.6-0.1,1.9-0.2c0.1-0.2,0.1-0.4,0.1-0.6s-0.1-0.3-0.3-0.5c-0.2-0.1-0.4-0.2-0.8-0.2
				s-0.6,0.1-0.8,0.2C26.9,25.7,26.8,25.9,26.7,26.1z M28.6,27.7c-0.1,0-0.3,0-0.5,0.1c-1,0.1-1.7,0.2-2,0.4
				c-0.2,0.1-0.3,0.3-0.3,0.6c0,0.2,0.1,0.4,0.2,0.5c0.2,0.1,0.4,0.2,0.7,0.2c0.3,0,0.6-0.1,0.8-0.2c0.3-0.1,0.5-0.3,0.6-0.5
				s0.2-0.5,0.3-0.9L28.6,27.7z"/>
		</g>
	</g>
	<g>
		<path class="st1" d="M32.1,24.4H34l-0.3,1.2c0.7-0.9,1.4-1.3,2.2-1.3c0.3,0,0.6,0.1,0.9,0.2L36,25.8c-0.2,0-0.4-0.1-0.6-0.1
			c-0.3,0-0.7,0.1-1,0.3c-0.3,0.2-0.6,0.5-0.8,0.9s-0.4,1-0.6,1.8l-0.5,2h-2L32.1,24.4z"/>
	</g>
	<g>
		<path class="st1" d="M36.9,25.6l0.3-1.3h1l0.2-1l2.3-1.2l-0.5,2.1H49l-1.1,1.3h-8l-0.6,2.6C39.1,28.7,39,28.9,39,29s0,0.2,0.1,0.3
			c0.1,0.1,0.3,0.1,0.5,0.1c0.1,0,0.3,0,0.7,0L40,30.6c-0.3,0.1-0.7,0.1-1,0.1c-0.7,0-1.2-0.1-1.5-0.3c-0.3-0.2-0.5-0.5-0.5-1
			c0-0.2,0.1-0.6,0.3-1.3l0.6-2.5L36.9,25.6L36.9,25.6z"/>
	</g>
	<g>
		<polygon class="st1" points="44.5,30 43.7,30.7 42.6,30.7 44.1,29.4 43.3,28.1 44.2,28.1 44.7,28.8 45.5,28.1 46.5,28.1 45,29.5 
			45.8,30.7 44.9,30.7 		"/>
	</g>
	<g>
		<g>
			<path class="st1" d="M48.4,29.6h-1.8c0,0,0,0,0,0.1c0,0.2,0,0.3,0.1,0.4s0.2,0.2,0.4,0.2s0.4-0.1,0.5-0.4l0.6,0.1
				c-0.1,0.2-0.3,0.4-0.5,0.6c-0.2,0.1-0.4,0.2-0.7,0.2s-0.6-0.1-0.9-0.3c-0.2-0.2-0.3-0.5-0.3-0.9c0-0.3,0.1-0.7,0.3-0.9
				c0.3-0.4,0.7-0.6,1.2-0.6c0.3,0,0.6,0.1,0.8,0.3c0.2,0.2,0.3,0.5,0.3,0.8C48.4,29.3,48.4,29.5,48.4,29.6z M47.8,29.2L47.8,29.2
				c0-0.3,0-0.4-0.1-0.5s-0.2-0.1-0.3-0.1s-0.3,0-0.4,0.2c-0.1,0.1-0.2,0.3-0.2,0.5L47.8,29.2L47.8,29.2z"/>
		</g>
	</g>
	<g>
		<g>
			<path class="st1" d="M43,29.6h-1.8c0,0,0,0,0,0.1c0,0.2,0,0.3,0.1,0.4s0.2,0.2,0.4,0.2s0.4-0.1,0.5-0.4l0.6,0.1
				c-0.1,0.2-0.3,0.4-0.5,0.6c-0.2,0.1-0.4,0.2-0.7,0.2s-0.6-0.1-0.9-0.3c-0.2-0.2-0.3-0.5-0.3-0.9c0-0.3,0.1-0.7,0.3-0.9
				c0.3-0.4,0.7-0.6,1.2-0.6c0.3,0,0.6,0.1,0.8,0.3c0.2,0.2,0.3,0.5,0.3,0.8C43,29.3,43,29.5,43,29.6z M42.4,29.2L42.4,29.2
				c0-0.3,0-0.4-0.1-0.5s-0.2-0.1-0.3-0.1s-0.3,0-0.4,0.2c-0.1,0.1-0.2,0.3-0.2,0.5L42.4,29.2L42.4,29.2z"/>
		</g>
	</g>
	<g>
		<path class="st1" d="M5.4,28.9l1.9-0.3C7.5,29,7.7,29.2,8,29.4c0.2,0.1,0.6,0.2,1,0.2s0.8-0.1,1.1-0.3c0.2-0.1,0.3-0.3,0.3-0.4
			s0-0.2-0.1-0.3c-0.1-0.1-0.4-0.2-0.8-0.3c-1.2-0.3-1.9-0.6-2.2-0.8c-0.4-0.3-0.7-0.7-0.7-1.2s0.2-0.9,0.6-1.3
			c0.6-0.5,1.5-0.7,2.7-0.7c0.9,0,1.7,0.1,2.1,0.4c0.5,0.3,0.8,0.7,0.9,1.2l-1.8,0.3c-0.1-0.2-0.2-0.4-0.5-0.5s-0.6-0.2-1.1-0.2
			c-0.4,0-0.7,0.1-0.9,0.2s-0.3,0.2-0.3,0.4c0,0.2,0.1,0.3,0.3,0.4c0.1,0.1,0.5,0.2,1.1,0.3c1,0.2,1.6,0.5,1.9,0.7
			c0.5,0.3,0.7,0.7,0.7,1.2c0,0.6-0.3,1.1-0.9,1.5c-0.6,0.4-1.4,0.7-2.5,0.7S7,30.7,6.4,30.4C6,29.9,5.6,29.5,5.4,28.9z"/>
	</g>
</g>
</svg>
