<?xml version="1.0" encoding="utf-8"?>
<!-- Generator: Adobe Illustrator 21.0.2, SVG Export Plug-In . SVG Version: 6.00 Build 0)  -->
<svg version="1.1" id="Layer_1" xmlns="http://www.w3.org/2000/svg" xmlns:xlink="http://www.w3.org/1999/xlink" x="0px" y="0px"
	 viewBox="0 0 409.6 408.3" style="enable-background:new 0 0 409.6 408.3;" xml:space="preserve">
<style type="text/css">
	.st0{fill:#4B8E97;}
</style>
<g>
	<path class="st0" d="M39.6,137.9h13.2c0-25.7,20.4-46.2,46.2-46.2V78.5C66,78.5,39.6,104.9,39.6,137.9L39.6,137.9z"/>
	<path class="st0" d="M98.9,131.3v66H310v-66H98.9z M296.8,184H112.1v-39.6h184.7V184z"/>
	<path class="st0" d="M98.9,210.4v66H310v-66H98.9z M296.8,263.2H112.1v-39.6h184.7V263.2z"/>
	<path class="st0" d="M374.6,126.6c-4-21.8-18.5-40.2-38.3-48.8c0-33.6-34.3-70.6-81.1-54.1C237.4,8.6,214.4,0,191.3,0
		c-36.9,0-70.6,20.4-87.7,52.8c-69.9-3.3-94.3,62.7-90.4,91.7C4.6,155.7,0,170.2,0,184c0,36.3,29.7,66,66,66h26.4v-13.2H66
		c-29,0-52.8-23.7-52.8-52.8c0-21.8,13.9-35.6,13.9-35.6c-6.6-43.5,29.7-89.7,84.4-82.4c0,0,21.1-53.4,79.8-53.4
		c38.9,0,62,26.4,62,26.4c41.6-21.8,75.9,14.5,69.9,47.5c18.5,5.3,38.9,21.8,40.2,48.8c0,0,33,13.2,33,48.8
		c0,29-23.7,52.8-52.8,52.8h-26.4V250h26.4c36.3,0,66-29.7,66-66C408.9,159.6,395.8,137.9,374.6,126.6L374.6,126.6z"/>
	<path class="st0" d="M224.3,381.9v-13.2h-13.2v-13.2H310v-66H98.9v66h98.9v13.2h-13.2v13.2h-112v13.2h112.1v13.2h39.6v-13.2h112.1
		v-13.2H224.3z M112.1,342.3v-39.6h184.7v39.6H112.1z M211.1,395.1h-13.2v-13.2h13.2V395.1z"/>
	<rect x="125.3" y="157.6" class="st0" width="13.2" height="13.2"/>
	<rect x="151.7" y="157.6" class="st0" width="13.2" height="13.2"/>
	<rect x="178.1" y="157.6" class="st0" width="13.2" height="13.2"/>
	<rect x="211.1" y="157.6" class="st0" width="72.6" height="13.2"/>
	<rect x="125.3" y="236.8" class="st0" width="13.2" height="13.2"/>
	<rect x="151.7" y="236.8" class="st0" width="13.2" height="13.2"/>
	<rect x="178.1" y="236.8" class="st0" width="13.2" height="13.2"/>
	<rect x="211.1" y="236.8" class="st0" width="72.6" height="13.2"/>
	<rect x="125.3" y="315.9" class="st0" width="13.2" height="13.2"/>
	<rect x="151.7" y="315.9" class="st0" width="13.2" height="13.2"/>
	<rect x="178.1" y="315.9" class="st0" width="13.2" height="13.2"/>
	<rect x="211.1" y="315.9" class="st0" width="72.6" height="13.2"/>
</g>
</svg>
