<?xml version="1.0" encoding="utf-8"?>
<!-- Generator: Adobe Illustrator 21.0.2, SVG Export Plug-In . SVG Version: 6.00 Build 0)  -->
<svg version="1.1" id="Layer_1" xmlns="http://www.w3.org/2000/svg" xmlns:xlink="http://www.w3.org/1999/xlink" x="0px" y="0px"
	 viewBox="0 0 409.6 403" style="enable-background:new 0 0 409.6 403;" xml:space="preserve">
<style type="text/css">
	.st0{fill:#4B8E97;}
</style>
<g>
	<path class="st0" d="M93.1,211.4c-6.7,0-13.1,3.6-16.5,9.3l-9.9,16.6l-0.5-1.1v-20.4l21.5-8.6c7-2.8,11.6-9.5,11.6-17.1
		c0-5.9-2.9-11.5-7.7-14.9c-4.8-3.4-11-4.4-16.6-2.5l-2.3,0.8l2.7-5.3c2.7-5.3,4.1-11.3,4.1-17.3c0-10.4-8.5-18.9-18.9-18.9
		c-7.2,0-13.6,4-16.9,10.4l-16.4,32.9L13.5,243l-0.1,87.2l5.2,26.4H0V403h99.1v-46.2H79.3v-44.2l12.1-18.2l18-47.5
		c1.9-5.2,2.9-10.7,2.9-16.2C112.3,220,103.7,211.4,93.1,211.4L93.1,211.4z M79.1,185.3c1.6-0.5,3.3-0.3,4.7,0.7
		c1.4,1,2.1,2.5,2.1,4.2c0,2.1-1.3,4-3.2,4.8l-16.6,6.6v-11.9L79.1,185.3z M85.9,370v19.8H13.2V370H85.9z M97,242.2l-17,45.4
		l-13.9,20.9v48.2H31.8l-5.4-27.1V245l12.9-64.6l16-32.1c1-1.9,2.9-3.1,5-3.1c3.1,0,5.6,2.5,5.6,5.6c0,3.9-0.9,7.9-2.7,11.4
		l-10.5,21.1v56l12.7,25.4l22.3-37.2c1.1-1.8,3.1-2.9,5.2-2.9c3.3,0,6,2.7,6,6C99.1,234.6,98.4,238.5,97,242.2L97,242.2z"/>
	<path class="st0" d="M391.2,356.7l5-25.1l0.1-87.2L383,177.1l-17-34.5c-3.2-6.4-9.7-10.4-16.9-10.4c-10.4,0-18.9,8.5-18.9,18.9
		c0,6,1.4,11.9,4.1,17.3l2.7,5.3l-2.3-0.8c-5.6-1.9-11.8-1-16.6,2.5c-4.8,3.5-7.6,9-7.6,14.9c0,7.6,4.5,14.3,11.5,17.1l21.5,8.6
		v20.4l-0.5,1.1l-9.9-16.6c-3.4-5.8-9.8-9.4-16.5-9.4c-10.6,0-19.3,8.6-19.3,19.3c0,5.5,1,11,2.9,16.2l17.3,46.1l12.8,19.5v44.2
		h-19.8V403h99.1v-46.2L391.2,356.7L391.2,356.7z M326.9,195c-2-0.8-3.2-2.7-3.2-4.8c0-1.7,0.8-3.2,2.1-4.2c1.4-1,3.1-1.2,4.7-0.7
		l13,4.4v11.9L326.9,195z M329.6,287.6l-17-45.4c-1.4-3.7-2.1-7.6-2.1-11.6c0-3.3,2.7-6,6-6c2.1,0,4.1,1.1,5.2,2.9l22.3,37.2
		l12.7-25.4v-56l-10.5-21c-1.8-3.5-2.7-7.5-2.7-11.4c0-3.1,2.5-5.6,5.6-5.6c2.1,0,4.1,1.2,5.1,3.1l16,32.1l12.9,64.6v84.6l-5.4,27.1
		h-34.2v-48.2L329.6,287.6z M396.4,389.8h-72.7V370h72.7L396.4,389.8L396.4,389.8z"/>
	<path class="st0" d="M288.3,118.9h15.6V79.3h-15.6c-2.1-9-5.6-17.4-10.4-25.2l11-11l-28-28l-11,11c-7.8-4.8-16.3-8.3-25.2-10.4V0
		H185v15.6c-9,2.1-17.4,5.6-25.2,10.4l-11-11l-28,28l11,11c-4.8,7.8-8.3,16.3-10.4,25.2h-15.6v39.6h15.6c2.1,9,5.6,17.4,10.4,25.2
		l-11,11l28,28l10.1-10.1c-0.1,0.7-0.2,1.3-0.2,2c0,5.9,3.1,11,7.7,13.9c-0.7,1.8-1.1,3.8-1.1,5.9c0,9.1,7.4,16.5,16.5,16.5H228
		c9.1,0,16.5-7.4,16.5-16.5c0-2.1-0.4-4.1-1.1-5.9c4.6-2.9,7.7-8.1,7.7-13.9c0-0.6-0.1-1.2-0.2-1.8l9.9,9.9l28-28l-11-11
		C282.7,136.3,286.2,127.9,288.3,118.9L288.3,118.9z M228,198.2h-46.2c-1.8,0-3.3-1.5-3.3-3.3s1.5-3.3,3.3-3.3H228
		c1.8,0,3.3,1.5,3.3,3.3S229.8,198.2,228,198.2L228,198.2z M234.6,178.4h-59.5c-1.8,0-3.3-1.5-3.3-3.3s1.5-3.3,3.3-3.3h59.5
		c1.8,0,3.3,1.5,3.3,3.3C237.9,176.9,236.5,178.4,234.6,178.4L234.6,178.4z M211.5,117.7c7.7-2.7,13.2-10,13.2-18.6
		c0-10.9-8.9-19.8-19.8-19.8s-19.8,8.9-19.8,19.8c0,8.6,5.5,15.9,13.2,18.6v40.9h-13.2V141l-3.3-1.9c-14.3-8.3-23.1-23.6-23.1-40
		c0-25.5,20.8-46.2,46.2-46.2c25.5,0,46.2,20.7,46.2,46.2c0,16.4-8.9,31.7-23.1,40l-3.3,1.9v17.5h-13.2L211.5,117.7L211.5,117.7z
		 M204.9,105.7c-3.6,0-6.6-3-6.6-6.6s3-6.6,6.6-6.6s6.6,3,6.6,6.6S208.6,105.7,204.9,105.7L204.9,105.7z M276.4,111.2
		c-1.8,10.9-6,21-12.4,29.9l-3.2,4.5l9.4,9.5l-9.3,9.3l-9.5-9.5l-4.6,3.2c-1.2,0.9-2.5,1.7-3.9,2.6c-1.5-0.9-3.2-1.6-5-2v-10.4
		c16.4-11,26.4-29.6,26.4-49.4c0-32.8-26.7-59.5-59.5-59.5s-59.5,26.7-59.5,59.5c0,19.8,10,38.4,26.4,49.4v10.4
		c-1.8,0.4-3.5,1.1-5.1,2c-1.4-0.9-2.8-1.7-4-2.6l-4.6-3.2l-9.5,9.5l-9.3-9.3l9.5-9.5l-3.2-4.5c-6.4-9-10.6-19-12.4-29.9l-0.9-5.5
		h-13.4V92.5h13.4l0.9-5.5c1.8-10.9,6-21,12.4-29.9l3.2-4.5l-9.4-9.5l9.3-9.3l9.5,9.4l4.5-3.2c9-6.4,19-10.5,29.9-12.4l5.5-0.9V13.2
		h13.2v13.4l5.5,0.9c10.9,1.8,21,6,29.9,12.4l4.5,3.2l9.5-9.4l9.3,9.3l-9.4,9.5L264,57c6.4,9,10.6,19,12.4,29.9l0.9,5.5h13.4v13.2
		h-13.4L276.4,111.2z"/>
	<rect x="198.2" y="224.6" class="st0" width="13.2" height="13.2"/>
	<rect x="198.2" y="251" class="st0" width="13.2" height="13.2"/>
	<rect x="198.2" y="277.5" class="st0" width="13.2" height="13.2"/>
	<rect x="198.2" y="303.9" class="st0" width="13.2" height="13.2"/>
</g>
</svg>
