<?xml version="1.0" encoding="utf-8"?>
<!-- Generator: Adobe Illustrator 21.0.2, SVG Export Plug-In . SVG Version: 6.00 Build 0)  -->
<svg version="1.1" id="Layer_1" xmlns="http://www.w3.org/2000/svg" xmlns:xlink="http://www.w3.org/1999/xlink" x="0px" y="0px"
	 viewBox="0 0 409.6 356.7" style="enable-background:new 0 0 409.6 356.7;" xml:space="preserve">
<style type="text/css">
	.st0{fill:#4B8E97;}
</style>
<g>
	<path class="st0" d="M409.6,0H0v290.7h113.5C93,303.3,77.8,324,72.8,348.8l-1.6,7.9h267.1l-1.6-7.9c-5-24.8-20.2-45.6-40.7-58.1
		h113.6V0z M321.8,343.5h-234c9.8-31,38.9-52.8,72.1-52.8h89.9C282.9,290.7,312,312.4,321.8,343.5L321.8,343.5z M396.4,277.5H13.2
		v-33.1h383.2L396.4,277.5L396.4,277.5z M396.4,231.2H13.2v-218h383.2L396.4,231.2L396.4,231.2z"/>
	<path class="st0" d="M69.9,33L33.1,69.9v141.5H152V33H69.9z M66,55.6V66H55.6L66,55.6z M138.8,198.2H46.3V79.3h33.1V46.2h59.4
		L138.8,198.2L138.8,198.2z"/>
	<path class="st0" d="M66,158.5h52.8v-66H66V158.5z M79.3,105.6h26.4v39.7H79.3V105.6z"/>
	<rect x="59.4" y="171.7" class="st0" width="66" height="13.2"/>
	<path class="st0" d="M350.2,158.5h-141L174,185l35.2,26.4h140.9c14.6,0,26.4-11.9,26.4-26.4C376.6,170.4,364.8,158.5,350.2,158.5
		L350.2,158.5z M211.4,196.6L196,185l15.4-11.6V196.6z M330.3,198.2H224.6v-26.4h105.7V198.2z M350.1,198.2h-6.6v-26.4h6.6
		c7.3,0,13.2,6,13.2,13.2C363.3,192.2,357.4,198.2,350.1,198.2L350.1,198.2z"/>
	<path class="st0" d="M178.4,66v79.3h198.2V66H178.4z M363.5,132.1H191.6V79.3h13.2v13.2H218V79.3h13.2v13.2h13.2V79.3h13.2v13.2
		h13.2V79.3H284v13.2h13.2V79.3h13.2v13.2h13.2V79.3H337v13.2h13.2V79.3h13.2L363.5,132.1L363.5,132.1z"/>
</g>
</svg>
