<?xml version="1.0" encoding="utf-8"?>
<!-- Generator: Adobe Illustrator 21.0.2, SVG Export Plug-In . SVG Version: 6.00 Build 0)  -->
<svg version="1.1" id="Layer_1" xmlns="http://www.w3.org/2000/svg" xmlns:xlink="http://www.w3.org/1999/xlink" x="0px" y="0px"
	 viewBox="0 0 409.6 353.2" style="enable-background:new 0 0 409.6 353.2;" xml:space="preserve">
<style type="text/css">
	.st0{fill:#4D8D97;}
</style>
<g>
	<path class="st0" d="M409.6,0H0v296.6h102.8L86.9,339H63.5v14.1H346V339h-23.4l-15.9-42.4h102.9V0z M307.6,339H102l15.9-42.4h173.8
		L307.6,339z M395.5,282.5H14.1v-42.4h381.4V282.5z M395.5,226.1H14.1V14.2h381.4V226.1z"/>
	<rect x="197.7" y="254.2" class="st0" width="14.1" height="14.1"/>
	<rect x="226" y="254.2" class="st0" width="14.1" height="14.1"/>
	<rect x="169.5" y="254.2" class="st0" width="14.1" height="14.1"/>
	<path class="st0" d="M148,75.7l-9.8-10.2L81.6,120l56.6,54.5l9.8-10.2L102,120L148,75.7z"/>
	<path class="st0" d="M271.4,65.6l-9.8,10.2l46,44.3l-46,44.3l9.8,10.2l56.6-54.5L271.4,65.6z"/>
	<path class="st0" d="M241.1,45.8l-84.7,141.3l12.2,7.3l84.7-141.2L241.1,45.8z"/>
</g>
</svg>
