<?xml version="1.0" encoding="utf-8"?>
<!-- Generator: Adobe Illustrator 21.0.2, SVG Export Plug-In . SVG Version: 6.00 Build 0)  -->
<svg version="1.1" id="Layer_1" xmlns="http://www.w3.org/2000/svg" xmlns:xlink="http://www.w3.org/1999/xlink" x="0px" y="0px"
	 viewBox="0 0 409.6 409.6" style="enable-background:new 0 0 409.6 409.6;" xml:space="preserve">
<style type="text/css">
	.st0{fill:#4B8E97;}
</style>
<g>
	<path class="st0" d="M343.5,204.8V96.4L247.2,0H0v409.6h343.5v-79.3h66.1V204.8H343.5z M251,22.6l70,69.9h-70V22.6z M330.3,396.4
		H13.2V13.2h224.6v92.5h92.5v99.1h-13.2V218h-4.4l-23.4-17.6l-18.4-36.9v-44.7h-37.5L218,157.3v21.1l4.7,19.8h-69.6l-8,39.8
		l8.7,34.8L132,291.2v-13.7H26.4v105.7h105.7v-74.7l25.3-21.4l1.3,5.2l15.5,31.4H300l6.6-6.6h10.5v13.2h13.2L330.3,396.4
		L330.3,396.4z M231.2,177.6v-17.7l11.1-27.7h15.3v34.6l21.2,42.4l29.4,22.1h8.8V304h-15.9l-6.6,6.6h-112l-11.1-22.1l-12.7-50.7
		l5.3-26.3h75.7L231.2,177.6z M62.5,356.8h12.6l43.8-37.1V370H39.6v-79.3h79.3v11.7l-48.7,41.2h-0.7l-11.3-16.9l-11,7.3L62.5,356.8z
		 M396.4,317.1h-66.1V218h66.1V317.1z"/>
	<path class="st0" d="M132.1,57.4l30.7-26l-8.5-10.1l-22.2,18.8V26.4H26.4v105.7h105.7L132.1,57.4L132.1,57.4z M118.9,51.3
		L70.3,92.5h-0.7L58.3,75.6l-11,7.3l15.2,22.8h12.6l43.8-37.1v50.3H39.6V39.6h79.3V51.3z"/>
	<path class="st0" d="M132.1,183l30.7-26l-8.5-10.1l-22.2,18.8V152H26.4v105.7h105.7L132.1,183L132.1,183z M118.9,176.8L70.3,218
		h-0.7l-11.3-16.9l-11,7.3l15.2,22.8h12.6l43.8-37.1v50.3H39.6v-79.3h79.3V176.8z"/>
</g>
</svg>
